<?xml version="1.0" encoding="utf-8"?>
<!-- Generator: Adobe Illustrator 16.0.0, SVG Export Plug-In . SVG Version: 6.00 Build 0)  -->
<!DOCTYPE svg PUBLIC "-//W3C//DTD SVG 1.1//EN" "http://www.w3.org/Graphics/SVG/1.1/DTD/svg11.dtd">
<svg version="1.1" id="Layer_1" xmlns="http://www.w3.org/2000/svg" xmlns:xlink="http://www.w3.org/1999/xlink" x="0px" y="0px" viewBox="0 0 165.9 280" style="enable-background:new 0 0 165.9 280;" xml:space="preserve">
<style type="text/css">
<![CDATA[
	.c0{fill:#E1EAF2;}
	.c1{fill:#1D71B8;}
	.c2{fill:#8E1315;}
	.c3{fill:#BE1622;}
	.c4{fill:#FFF;}
]]>
</style>
<g>
	<path class="c2" d="M27.7,127.8L27.7,127.8c-14.1,0-25.5-11.4-25.5-25.5V84.2c0-14.1,11.4-25.5,25.5-25.5l0,0
		C41.8,58.6,41.8,127.8,27.7,127.8z"/>
	<path class="c2" d="M163.9,102.3c0,14.1-11.4,25.5-25.5,25.5l0,0c-14.1,0-14.1-69.2,0-69.2l0,0c14.1,0,25.5,11.4,25.5,25.5V102.3z
		"/>
	<path class="c0" d="M27.2,130.9V58.5c0-30.8,25-55.8,55.8-55.8l0,0c30.8,0,55.8,25,55.8,55.8v70.2"/>
	<g>
		<path class="c1" d="M75,66.3v-8.8C75,46.7,66.3,38,55.5,38l0,0C44.7,38,36,46.7,36,57.5v37.1L75,66.3z"/>
		<path d="M36,98.6c-2.2,0-4-1.8-4-4V57.5C32,44.5,42.5,34,55.5,34S79,44.5,79,57.5v8.8c0,2.2-1.8,4-4,4s-4-1.8-4-4v-8.8
			c0-8.5-7-15.5-15.5-15.5S40,48.9,40,57.5v37.1C40,96.8,38.2,98.6,36,98.6z"/>
	</g>
	<g>
		<path class="c1" d="M129.2,94.6V57.5c0-10.8-8.7-19.5-19.5-19.5l0,0c-10.8,0-19.5,8.7-19.5,19.5v8.8L129.2,94.6z"/>
		<path d="M129.2,98.6c-2.2,0-4-1.8-4-4V57.5c0-8.5-7-15.5-15.5-15.5s-15.5,7-15.5,15.5v8.8c0,2.2-1.8,4-4,4s-4-1.8-4-4v-8.8
			c0-13,10.5-23.5,23.5-23.5s23.5,10.5,23.5,23.5v37.1C133.2,96.8,131.4,98.6,129.2,98.6z"/>
	</g>
	<path class="c4" d="M125.5,72.2c0-8.7-7.1-15.8-15.8-15.8s-15.8,7.1-15.8,15.8c0,0.3-22.6,0.3-22.6,0c0-8.7-7.1-15.8-15.8-15.8
		s-15.8,7.1-15.8,15.8c0,0.3-0.1,72.9-0.1,72.9h85.9C125.5,145.1,125.5,75.1,125.5,72.2z"/>
	<circle class="c1" cx="55.5" cy="72.2" r="7.9"/>
	<circle cx="55.5" cy="72.2" r="4.8"/>
	<circle class="animated inf jel c1" cx="109.7" cy="72.2" r="7.9"/>
	<circle class="animated inf jel" cx="109.7" cy="72.2" r="4.8"/>
	<circle class="c3" cx="83" cy="83.1" r="22.8"/>
	<path class="c3" d="M138.8,107.3c0.1-9,0.2-17.6-9-21.8c-6.7-3.1-15.9-0.9-20.6,9.2l-0.2,0.4c-4.3,10.7-14.6,17.6-26.1,17.6
		S61.3,105.7,56.9,95l-0.2-0.4c-4.7-10.1-13.9-12.3-20.6-9.2c-9.2,4.2-9.1,12.8-9,21.8c0,0.6,0,147.9,0,147.9
		c0,9.6,6,17.8,14.5,21.1v-6.8c0-2.9,2.3-5.2,5.2-5.2c2.7,0,4.9,2.1,5.2,4.7c0.3-2.6,2.5-4.7,5.2-4.7c2.7,0,4.9,2.1,5.2,4.7
		c0.3-2.6,2.5-4.7,5.2-4.7c2.7,0,4.9,2.1,5.2,4.7c0.3-2.6,2.5-4.7,5.2-4.7c2.7,0,4.9,2.1,5.2,4.7c0.3-2.6,2.5-4.7,5.2-4.7
		c2.7,0,4.9,2.1,5.2,4.7c0.3-2.6,2.5-4.7,5.2-4.7c2.7,0,4.9,2.1,5.2,4.7c0.3-2.6,2.5-4.7,5.2-4.7c2.7,0,4.9,2.1,5.2,4.7
		c0.3-2.6,2.5-4.7,5.2-4.7c2.9,0,5.2,2.3,5.2,5.2v6.8c8.5-3.3,14.5-11.5,14.5-21.1C138.9,255.1,138.8,108,138.8,107.3z M124.4,134.5
		c0,2.9-2.3,5.2-5.2,5.2c-2.7,0-4.9-2.1-5.2-4.7c-0.3,2.6-2.5,4.7-5.2,4.7c-2.7,0-4.9-2.1-5.2-4.7c-0.3,2.6-2.5,4.7-5.2,4.7
		c-2.7,0-4.9-2.1-5.2-4.7c-0.3,2.6-2.5,4.7-5.2,4.7c-2.7,0-4.9-2.1-5.2-4.7c-0.3,2.6-2.5,4.7-5.2,4.7c-2.7,0-4.9-2.1-5.2-4.7
		c-0.3,2.6-2.5,4.7-5.2,4.7c-2.7,0-4.9-2.1-5.2-4.7c-0.3,2.6-2.5,4.7-5.2,4.7c-2.7,0-4.9-2.1-5.2-4.7c-0.3,2.6-2.5,4.7-5.2,4.7
		c-2.9,0-5.2-2.3-5.2-5.2v-34.3c6.3,16.8,22.4,28.7,41.4,28.7c18.9,0,35.1-11.9,41.4-28.6V134.5z"/>
</g>
</svg>
