<?xml version="1.0" encoding="utf-8"?>
<!-- Generator: Adobe Illustrator 16.0.0, SVG Export Plug-In . SVG Version: 6.00 Build 0)  -->
<!DOCTYPE svg PUBLIC "-//W3C//DTD SVG 1.1//EN" "http://www.w3.org/Graphics/SVG/1.1/DTD/svg11.dtd">
<svg version="1.1" xmlns="http://www.w3.org/2000/svg" xmlns:xlink="http://www.w3.org/1999/xlink" x="0px" y="0px" viewBox="0 0 167.5 284" style="enable-background:new 0 0 167.5 284;" xml:space="preserve">
<style type="text/css">
<![CDATA[
	.l0{fill:#7E1210;}
	.l1{fill:#1D71B8;}
	.l2{fill:#1E3579;}
	.l3{fill:#BE1622;}
	.l4{fill:#29235C;}
	.l5{fill:#F9B233;}
	.l6{fill:#F9C7B2;}
	.l7{fill:#FFF;}
]]>
</style>
<g>
	<g>
		<path class="l2" d="M148.3,170.2c5.2,2.1,10.8,2.4,16,1.1c-14.7-1.9-12.1-30.9-9.1-40.9l0,0c7.6-25.4,7.8-46,7.8-46
			c0-43.6-33.8-79.2-76.2-81.3c-0.9,0-2.3,0.2-3.1,1.4c-0.7-1.2-2.2-1.4-3.1-1.4C38.2,5.3,4.5,40.9,4.5,84.5c0,0,0.3,20.6,7.8,46
			l0,0c3.1,10,5.6,39-9.1,40.9c5.2,1.3,10.8,1,16-1.1c-1.8,6.6-4.8,16.1-16,18.5c6.6,1.6,18.3-0.1,24.3-6.8H140
			c6,6.7,17.7,8.4,24.3,6.8C153.1,186.4,150.2,176.8,148.3,170.2z"/>
		<g>
			<path class="l5" d="M120.7,17.4c0-1.6-3.9-2.8-8.9-2.9c3.4-3.5,5.3-7.2,4.2-8.3c-1.1-1.1-4.8,0.8-8.3,4.2
				c-0.1-4.9-1.4-8.9-2.9-8.9c-1.6,0-2.8,3.9-2.9,8.9c-3.5-3.4-7.2-5.3-8.3-4.2c-1.1,1.1,0.8,4.8,4.2,8.3c-4.9,0.1-8.9,1.4-8.9,2.9
				s3.9,2.8,8.9,2.9c-3.4,3.5-5.3,7.2-4.2,8.3c1.1,1.1,4.8-0.8,8.3-4.2c0.1,4.9,1.4,8.9,2.9,8.9c1.6,0,2.8-3.9,2.9-8.9
				c3.6,3.4,7.2,5.3,8.3,4.2c1.1-1.1-0.8-4.8-4.2-8.3C116.7,20.3,120.7,19,120.7,17.4z M104.8,23c-2.6,0-4.7-2.1-4.7-4.7
				s2.1-4.7,4.7-4.7c2.6,0,4.7,2.1,4.7,4.7S107.3,23,104.8,23z"/>
		</g>
		<path class="l6" d="M94.3,34.3L94.3,34.3c-5.6-1.9-9.8-6.8-10.5-12.7c0-0.3-0.1-0.6-0.1-0.7c0,0,0,0,0,0c0,0,0,0,0,0
			c0,0.2,0,0.4-0.1,0.8c-0.6,5.9-4.8,10.8-10.5,12.7h0.1C57.9,38.9,46.7,53,46.7,69.8v26.3c0,20.4,16.6,37,37,37
			c20.4,0,37-16.6,37-37V69.8C120.7,53,109.6,38.9,94.3,34.3z"/>
		<g>
			<path class="l3 animated jel inf" d="M108.4,108.2c0,0-19.1-8.2-21.7-5c-1.7,2.1-4,2.1-5.7,0c-2.6-3.2-21.7,5-21.7,5s7.9,10.3,24.5,10.3
				C100.4,118.5,108.4,108.2,108.4,108.2z"/>
			<path class="l0 animated jel inf" d="M83.7,111.9c-19.1,0-27-3.9-27.3-4.1c-0.2-0.1-0.3-0.4-0.2-0.7c0.1-0.2,0.4-0.3,0.7-0.2c0.1,0,8,4,26.8,4
				c18.8,0,26.8-3.9,26.8-4c0.2-0.1,0.5,0,0.7,0.2c0.1,0.2,0,0.5-0.2,0.7C110.7,108,102.8,111.9,83.7,111.9z"/>
		</g>
		<g>
			<defs>
				<path id="l7" d="M94.3,34.3L94.3,34.3c-5.6-1.9-9.8-6.8-10.5-12.7c0-0.3-0.1-0.6-0.1-0.7c0,0,0,0,0,0c0,0,0,0,0,0
					c0,0.2,0,0.4-0.1,0.8c-0.6,5.9-4.8,10.8-10.5,12.7h0.1C57.9,38.9,46.7,53,46.7,69.8v26.3c0,20.4,16.6,37,37,37
					c20.4,0,37-16.6,37-37V69.8C120.7,53,109.6,38.9,94.3,34.3z"/>
			</defs>
			<clipPath id="l8">
				<use xlink:href="#l7"  style="overflow:visible;"/>
			</clipPath>
		</g>
		<g>
			<g>
				<path class="l7" d="M114.1,72.9c-2.3,3.9-6.6,6.5-11.4,6.5c-4.9,0-9.1-2.6-11.4-6.5C93.6,69,111.8,69,114.1,72.9z"/>
				<g>
					<path class="l2" d="M96.6,72.5c-0.3,3.2,2.1,6.1,5.4,6.3c3.2,0.3,6.1-2.1,6.3-5.4c0.3-3.2-2.1-6.1-5.4-6.3
						C99.7,66.8,96.9,69.2,96.6,72.5z"/>
					<path d="M99,72.7c-0.2,2,1.3,3.7,3.2,3.8c2,0.2,3.7-1.3,3.8-3.2c0.2-2-1.3-3.7-3.2-3.8C100.8,69.3,99.1,70.7,99,72.7z"/>
					<circle class="l7" cx="102.5" cy="72.4" r="1.2"/>
				</g>
				<path class="l2" d="M120.8,70.1c0-8.4-6.8-15.2-15.2-15.2l0,0c-14,0-15.2,12.3-15.2,12.3c0-8.4,7.5-15.2,16.7-15.2l0,0
					c9.2,0,16.7,6.8,16.7,15.2L120.8,70.1z"/>
				<path class="l1" d="M90.3,73.6v-5.4c0-6.6,5.7-11.9,12.6-11.9l0,0c7,0,12.6,5.3,12.6,11.9L90.3,73.6z"/>
			</g>
			<path class="l4" d="M90.3,73.7c0.1,0,11.8-3.8,22.7-1c6.3,1.7,4.5-7.5,4.5-7.5c-1,5.2-7.3,1.8-13.1,1
				C93.1,64.7,90.3,73.7,90.3,73.7z"/>
		</g>
		<g>
			<g>
				<path class="l7" d="M53.4,72.9c2.3,3.9,6.6,6.5,11.4,6.5c4.9,0,9.1-2.6,11.4-6.5C73.9,69,55.8,69,53.4,72.9z"/>
				<g>
					<path class="l2" d="M70.9,72.5c0.3,3.2-2.1,6.1-5.4,6.3c-3.2,0.3-6.1-2.1-6.3-5.4c-0.3-3.2,2.1-6.1,5.4-6.3
						C67.8,66.8,70.7,69.2,70.9,72.5z"/>
					<path d="M68.6,72.7c0.2,2-1.3,3.7-3.2,3.8c-2,0.2-3.7-1.3-3.8-3.2c-0.2-2,1.3-3.7,3.2-3.8C66.7,69.3,68.4,70.7,68.6,72.7z"/>
					<circle class="l7" cx="65.1" cy="72.4" r="1.2"/>
				</g>
				<path class="l2" d="M46.7,70.1c0-8.4,6.8-15.2,15.2-15.2l0,0c14,0,15.2,12.3,15.2,12.3c0-8.4-7.5-15.2-16.7-15.2l0,0
					c-9.2,0-16.7,6.8-16.7,15.2L46.7,70.1z"/>
				<path class="l1" d="M77.2,73.6v-5.4c0-6.6-5.7-11.9-12.6-11.9l0,0c-7,0-12.6,5.3-12.6,11.9L77.2,73.6z"/>
			</g>
			<path class="l4" d="M77.3,73.7c-0.1,0-11.8-3.8-22.7-1c-6.3,1.7-4.5-7.5-4.5-7.5c1,5.2,7.3,1.8,13.1,1
				C74.4,64.7,77.3,73.7,77.3,73.7z"/>
		</g>
	</g>
	<path class="l1" d="M84.1,283.6c1-1,3.8-4,9.9-10.2c5.4-5.4,3.8-14.1,3.3-16.2c1.1,3.9,9.6,30.1,42.7,21.5
		c-21.6-7.9-19.5-23.6-19.4-23.5c17.4,37.1,45.8,14,45.8,14c-26.7,3.5-26.2-21-26.2-21V145.8c0-31-24.8-56.1-55.6-56.8
		c0.4,2,1.9,5.4,7.9,8c9,3.9,22.4,7.1,22.4,15.1c0,6.8-5,10.4-7.6,12.6s-12.5,8.9-18.6,5.2c-2.7-1.6-4-3.4-4.5-4.8h0
		c-0.6,1.5-1.8,3.2-4.5,4.8c-6.1,3.6-16-3-18.6-5.2s-7.6-5.9-7.6-12.6c0-8,13.4-11.2,22.4-15.1c6-2.6,7.5-6,7.9-8
		C52.8,89.6,28,114.8,28,145.8v102.4c0,0,0.5,24.5-26.2,21c0,0,28.4,23.1,45.8-14c0-0.1,2.2,15.7-19.4,23.5
		c33.2,8.6,41.6-17.6,42.7-21.5c-0.5,2.1-2.1,10.8,3.3,16.2C80.3,279.5,83.1,282.5,84.1,283.6L84.1,283.6z"/>
</g>
</svg>
