<?xml version="1.0" encoding="utf-8"?>
<!-- Generator: Adobe Illustrator 16.0.0, SVG Export Plug-In . SVG Version: 6.00 Build 0)  -->
<!DOCTYPE svg PUBLIC "-//W3C//DTD SVG 1.1//EN" "http://www.w3.org/Graphics/SVG/1.1/DTD/svg11.dtd">
<svg version="1.1" id="Layer_1" xmlns="http://www.w3.org/2000/svg" xmlns:xlink="http://www.w3.org/1999/xlink" x="0px" y="0px"
	 viewBox="0 0 164 268" style="enable-background:new 0 0 164 268;" xml:space="preserve">
<style type="text/css">
<![CDATA[
	.st0{fill:#1D71B8;}
	.st1{fill:#F39200;}
	.st2{fill:#F9C7B2;}
	.st3{clip-path:url(#s4);}
	.st4{fill:#FFF;}
	.st5{fill:#CE7E00;}
	.st6{fill:#DCB09E;}
]]>
</style>
<g>
	<path class="st2" d="M115.2,98.5H84.3v0c0,0,0,0,0,0c-17.6,0-31.8-14.2-31.8-31.8c0-17.6,14.2-31.8,31.8-31.8
		c4.3,0,8.4,0.8,12.1,2.4c0,0,2.6,1.1,2.6-2.9s-3.7-4.6-3.7-4.6v-8.1c0-6.1-9.1-5.8-9.1-5.8c-33.1,0-60,26.9-60,60
		c0,0.1,0,156.9,0,156.9H138V121.3C138,108.7,127.8,98.5,115.2,98.5z"/>
	<g>
		<g>
			<circle class="st2" cx="83.8" cy="66.7" r="29.3"/>
		</g>
		<path d="M83.7,37.5c-9.2,0-17.5,4.3-22.8,11c1.3,0.2,2.7,0.3,4.1,0.3c7.2,0,13.8-2.7,18.7-7.2c5,4.5,11.5,7.2,18.7,7.2
			c1.4,0,2.8-0.1,4.1-0.3C101.2,41.7,93,37.5,83.7,37.5z"/>
		<path class="st6" d="M83.8,72.9c-9.5,0-17.9,4.5-23.3,11.5c5.3,7,13.8,11.5,23.3,11.5c9.5,0,17.9-4.5,23.3-11.5
			C101.7,77.5,93.3,72.9,83.8,72.9z"/>
		<path class="st4" d="M83.7,81.8c5.8,0,10.9,2.1,14.2,5.4c1.4-0.8,2.6-1.7,3.6-2.8c-3.3-4.5-10-7.5-17.8-7.5
			c-7.7,0-14.4,3-17.8,7.5c1,1,2.2,2,3.6,2.8C72.8,83.9,77.9,81.8,83.7,81.8z"/>
		<g>
			<g>
				<path class="st4" d="M71.7,60.5c-3.1,0-5.9,1.7-7.4,4.2c1.5,2.5,4.2,4.2,7.4,4.2c3.1,0,5.9-1.7,7.4-4.2
					C77.5,62.2,74.8,60.5,71.7,60.5z"/>
				<g>
					<path class="st0" d="M75.2,64.4c0.2,1.9-1.2,3.5-3.1,3.7c-1.9,0.2-3.5-1.2-3.7-3.1c-0.2-1.9,1.2-3.5,3.1-3.7
						C73.4,61.2,75.1,62.6,75.2,64.4z"/>
					<circle cx="71.8" cy="64.7" r="2.1"/>
				</g>
				<path class="st6" d="M79.8,65.5C79.8,65.5,79.8,65.5,79.8,65.5c0.7-3.1-2.6-6.4-7.3-7.4c-4.7-1-9,0.7-9.7,3.8c0,0,0,0,0,0
					L79.8,65.5z"/>
			</g>
			<g>
				<path class="st4" d="M95.7,60.5c3.1,0,5.9,1.7,7.4,4.2c-1.5,2.5-4.2,4.2-7.4,4.2s-5.9-1.7-7.4-4.2
					C89.9,62.2,92.6,60.5,95.7,60.5z"/>
				<g>
					<path class="st0" d="M92.2,64.4c-0.2,1.9,1.2,3.5,3.1,3.7c1.9,0.2,3.5-1.2,3.7-3.1c0.2-1.9-1.2-3.5-3.1-3.7
						C94,61.2,92.3,62.6,92.2,64.4z"/>
					<path d="M93.5,64.5c-0.1,1.1,0.8,2.1,1.9,2.2c1.1,0.1,2.1-0.8,2.2-1.9c0.1-1.1-0.8-2.1-1.9-2.2C94.6,62.6,93.6,63.4,93.5,64.5z
						"/>
				</g>
				<path class="st6" d="M87.6,65.5C87.6,65.5,87.6,65.5,87.6,65.5c-0.7-3.1,2.6-6.4,7.3-7.4c4.7-1,9,0.7,9.7,3.8c0,0,0,0,0,0
					L87.6,65.5z"/>
			</g>
		</g>
		<g class="animated swing inf">
			<path d="M66.7,74.3c2,0,2.4,2.1,2.4,2.1s-1-1.1-2.3-0.8c-2.6,0.7,0.2,7,7.5,0.3c4-3.7,9.5-3,9.4-3.1c0,0,0.5,7-13.8,8.7
				C62.1,82.4,61.9,74.3,66.7,74.3z"/>
			<path d="M100.7,74.3c-2,0-2.4,2.1-2.4,2.1s1-1.1,2.3-0.8c2.6,0.7-0.2,7-7.5,0.3c-4-3.7-9.5-3-9.4-3.1c0,0-0.5,7,13.8,8.7
				C105.3,82.4,105.5,74.3,100.7,74.3z"/>
		</g>
	</g>
	<path class="st1" d="M26.3,266.7l7-7l7,7l7-7l7,7l7-7l7,7l7-7l7,7l7-7l7,7l7-7l7,7l7-7l7,7l7-7l7,7l0.3-0.3v-145c0-0.1,0-0.1,0-0.2
		H95.2c-12.5,0-22.7-10.2-22.7-22.7v-2.3c-4.4-1.8-8.3-4.5-11.5-7.9v1.4c0,17.4-14.1,31.5-31.5,31.5h-3.1
		C26.3,163.5,26.3,251.4,26.3,266.7L26.3,266.7z"/>
	<path d="M135.1,2c-13.7,0-25.2,10-27.4,23.1h-51C54.5,12,43.1,2,29.4,2C14.1,2,1.6,14.4,1.6,29.8c0,15.3,12.4,27.8,27.8,27.8
		c13.5,0,24.7-9.6,27.2-22.4h51.3c2.5,12.8,13.7,22.4,27.2,22.4c15.3,0,27.8-12.4,27.8-27.8C162.9,14.4,150.5,2,135.1,2z"/>
	<path class="st2" d="M99,35.3l0-2.1c0-1.4-1.1-2.4-2.5-2.5c-1.4,0-2.4,1.1-2.5,2.5l0,2.1L99,35.3z"/>
	<path class="st2" d="M77.8,24.5V29c0,1.3,1.1,2.4,2.4,2.4c1,0,1.8-0.6,2.1-1.4c0.4,0.8,1.2,1.4,2.1,1.4c1,0,1.8-0.6,2.1-1.4
		c0.4,0.8,1.2,1.4,2.1,1.4s1.8-0.6,2.1-1.4c0.4,0.8,1.2,1.4,2.2,1.4c1.3,0,2.4-1.1,2.4-2.4v-4.5H77.8z"/>
	<g>
		<defs>
			<path id="s3" d="M26.3,266.7l7-7l7,7l7-7l7,7l7-7l7,7l7-7l7,7l7-7l7,7l7-7l7,7l7-7l7,7l7-7l7,7l0.3-0.3v-145
				c0-0.1,0-0.1,0-0.2H95.2c-12.5,0-22.7-10.2-22.7-22.7v-2.3c-4.4-1.8-8.3-4.5-11.5-7.9v1.4c0,17.4-14.1,31.5-31.5,31.5h-3.1
				C26.3,163.5,26.3,251.4,26.3,266.7L26.3,266.7z"/>
		</defs>
		<clipPath id="s4">
			<use xlink:href="#s3"  style="overflow:visible;"/>
		</clipPath>
		<g class="st3">
			<g>
				<path class="st5" d="M127.7,217.3c0-5.5,4.5-10,10-10c5.5,0,10,4.5,10,10c0,5.5-4.5,10-10,10
					C132.2,227.3,127.7,222.8,127.7,217.3z"/>
				<path class="st5" d="M91.6,217.3c0-5.5,4.5-10,10-10c5.5,0,10,4.5,10,10c0,5.5-4.5,10-10,10C96,227.3,91.6,222.8,91.6,217.3z"/>
				<path class="st5" d="M52.9,217.3c0-5.5,4.5-10,10-10c5.5,0,10,4.5,10,10c0,5.5-4.5,10-10,10C57.3,227.3,52.9,222.8,52.9,217.3z"
					/>
				<path class="st5" d="M16.7,217.3c0-5.5,4.5-10,10-10c5.5,0,10,4.5,10,10c0,5.5-4.5,10-10,10C21.2,227.3,16.7,222.8,16.7,217.3z"
					/>
			</g>
			<g>
				<circle class="st5" cx="119.6" cy="187.9" r="10"/>
				<circle class="st5" cx="83.5" cy="187.9" r="10"/>
				<circle class="st5" cx="44.8" cy="187.9" r="10"/>
			</g>
			<g>
				<path class="st5" d="M109.6,246.8c0-5.5,4.5-10,10-10c5.5,0,10,4.5,10,10c0,5.5-4.5,10-10,10
					C114.1,256.8,109.6,252.3,109.6,246.8z"/>
				<path class="st5" d="M73.5,246.8c0-5.5,4.5-10,10-10c5.5,0,10,4.5,10,10c0,5.5-4.5,10-10,10C78,256.8,73.5,252.3,73.5,246.8z"/>
				<path class="st5" d="M34.8,246.8c0-5.5,4.5-10,10-10c5.5,0,10,4.5,10,10c0,5.5-4.5,10-10,10C39.3,256.8,34.8,252.3,34.8,246.8z"
					/>
			</g>
			<g>
				<circle class="st5" cx="137.7" cy="158.5" r="10"/>
				<circle class="st5" cx="101.6" cy="158.5" r="10"/>
				<circle class="st5" cx="62.9" cy="158.5" r="10"/>
				<circle class="st5" cx="26.7" cy="158.5" r="10"/>
			</g>
			<g>
				<path class="st5" d="M109.6,129c0-5.5,4.5-10,10-10c5.5,0,10,4.5,10,10c0,5.5-4.5,10-10,10C114.1,139,109.6,134.5,109.6,129z"/>
				<path class="st5" d="M73.5,129c0-5.5,4.5-10,10-10c5.5,0,10,4.5,10,10c0,5.5-4.5,10-10,10C78,139,73.5,134.5,73.5,129z"/>
				<path class="st5" d="M34.8,129c0-5.5,4.5-10,10-10c5.5,0,10,4.5,10,10c0,5.5-4.5,10-10,10C39.3,139,34.8,134.5,34.8,129z"/>
			</g>
			<g>
				<circle class="st5" cx="62.9" cy="99.6" r="10"/>
			</g>
		</g>
	</g>
</g>
</svg>
