<svg xmlns="http://www.w3.org/2000/svg" xmlns:xlink="http://www.w3.org/1999/xlink" viewBox="0 0 167.5 284"><style>.l0{fill:#7e1210}.l1{fill:#1d71b8}.l2{fill:#1e3579}.l3{fill:#be1622}.l4{fill:#29235c}.l5{fill:#f9b233}.l6{fill:#f9c7b2}.l7{fill:#fff}</style><path class="l2" d="M148.3 170.2c5.2 2.1 10.8 2.4 16 1.1-14.7-1.9-12.1-30.9-9.1-40.9 7.6-25.4 7.8-46 7.8-46 0-43.6-33.8-79.2-76.2-81.3-.9 0-2.3.2-3.1 1.4-.7-1.2-2.2-1.4-3.1-1.4C38.2 5.3 4.5 40.9 4.5 84.5c0 0 .3 20.6 7.8 46 3.1 10 5.6 39-9.1 40.9 5.2 1.3 10.8 1 16-1.1-1.8 6.6-4.8 16.1-16 18.5 6.6 1.6 18.3-.1 24.3-6.8H140c6 6.7 17.7 8.4 24.3 6.8-11.2-2.4-14.1-12-16-18.6z"/><path class="l5" d="M120.7 17.4c0-1.6-3.9-2.8-8.9-2.9 3.4-3.5 5.3-7.2 4.2-8.3-1.1-1.1-4.8.8-8.3 4.2-.1-4.9-1.4-8.9-2.9-8.9-1.6 0-2.8 3.9-2.9 8.9-3.5-3.4-7.2-5.3-8.3-4.2-1.1 1.1.8 4.8 4.2 8.3-4.9.1-8.9 1.4-8.9 2.9s3.9 2.8 8.9 2.9c-3.4 3.5-5.3 7.2-4.2 8.3 1.1 1.1 4.8-.8 8.3-4.2.1 4.9 1.4 8.9 2.9 8.9 1.6 0 2.8-3.9 2.9-8.9 3.6 3.4 7.2 5.3 8.3 4.2 1.1-1.1-.8-4.8-4.2-8.3 4.9 0 8.9-1.3 8.9-2.9zM104.8 23c-2.6 0-4.7-2.1-4.7-4.7s2.1-4.7 4.7-4.7 4.7 2.1 4.7 4.7-2.2 4.7-4.7 4.7z"/><path class="l6" d="M94.3 34.3c-5.6-1.9-9.8-6.8-10.5-12.7 0-.3-.1-.6-.1-.7 0 .2 0 .4-.1.8-.6 5.9-4.8 10.8-10.5 12.7h.1C57.9 38.9 46.7 53 46.7 69.8v26.3c0 20.4 16.6 37 37 37s37-16.6 37-37V69.8c0-16.8-11.1-30.9-26.4-35.5z"/><path class="l3 animated jel inf" d="M108.4 108.2s-19.1-8.2-21.7-5c-1.7 2.1-4 2.1-5.7 0-2.6-3.2-21.7 5-21.7 5s7.9 10.3 24.5 10.3 24.6-10.3 24.6-10.3z"/><path class="l0 animated jel inf" d="M83.7 111.9c-19.1 0-27-3.9-27.3-4.1-.2-.1-.3-.4-.2-.7.1-.2.4-.3.7-.2.1 0 8 4 26.8 4s26.8-3.9 26.8-4c.2-.1.5 0 .7.2.1.2 0 .5-.2.7-.3.2-8.2 4.1-27.3 4.1z"/><defs><path id="l7" d="M94.3 34.3c-5.6-1.9-9.8-6.8-10.5-12.7 0-.3-.1-.6-.1-.7 0 .2 0 .4-.1.8-.6 5.9-4.8 10.8-10.5 12.7h.1C57.9 38.9 46.7 53 46.7 69.8v26.3c0 20.4 16.6 37 37 37s37-16.6 37-37V69.8c0-16.8-11.1-30.9-26.4-35.5z"/></defs><clipPath id="l8"><use xlink:href="#l7" overflow="visible"/></clipPath><g><path class="l7" d="M114.1 72.9c-2.3 3.9-6.6 6.5-11.4 6.5-4.9 0-9.1-2.6-11.4-6.5 2.3-3.9 20.5-3.9 22.8 0z"/><path class="l2" d="M96.6 72.5c-.3 3.2 2.1 6.1 5.4 6.3 3.2.3 6.1-2.1 6.3-5.4.3-3.2-2.1-6.1-5.4-6.3-3.2-.3-6 2.1-6.3 5.4z"/><path d="M99 72.7c-.2 2 1.3 3.7 3.2 3.8 2 .2 3.7-1.3 3.8-3.2.2-2-1.3-3.7-3.2-3.8-2-.2-3.7 1.2-3.8 3.2z"/><circle class="l7" cx="102.5" cy="72.4" r="1.2"/><path class="l2" d="M120.8 70.1c0-8.4-6.8-15.2-15.2-15.2-14 0-15.2 12.3-15.2 12.3 0-8.4 7.5-15.2 16.7-15.2s16.7 6.8 16.7 15.2l-3 2.9z"/><path class="l1" d="M90.3 73.6v-5.4c0-6.6 5.7-11.9 12.6-11.9 7 0 12.6 5.3 12.6 11.9l-25.2 5.4z"/><path class="l4" d="M90.3 73.7c.1 0 11.8-3.8 22.7-1 6.3 1.7 4.5-7.5 4.5-7.5-1 5.2-7.3 1.8-13.1 1-11.3-1.5-14.1 7.5-14.1 7.5z"/></g><g><path class="l7" d="M53.4 72.9c2.3 3.9 6.6 6.5 11.4 6.5 4.9 0 9.1-2.6 11.4-6.5-2.3-3.9-20.4-3.9-22.8 0z"/><path class="l2" d="M70.9 72.5c.3 3.2-2.1 6.1-5.4 6.3-3.2.3-6.1-2.1-6.3-5.4-.3-3.2 2.1-6.1 5.4-6.3 3.2-.3 6.1 2.1 6.3 5.4z"/><path d="M68.6 72.7c.2 2-1.3 3.7-3.2 3.8-2 .2-3.7-1.3-3.8-3.2-.2-2 1.3-3.7 3.2-3.8 1.9-.2 3.6 1.2 3.8 3.2z"/><circle class="l7" cx="65.1" cy="72.4" r="1.2"/><path class="l2" d="M46.7 70.1c0-8.4 6.8-15.2 15.2-15.2 14 0 15.2 12.3 15.2 12.3 0-8.4-7.5-15.2-16.7-15.2s-16.7 6.8-16.7 15.2l3 2.9z"/><path class="l1" d="M77.2 73.6v-5.4c0-6.6-5.7-11.9-12.6-11.9-7 0-12.6 5.3-12.6 11.9l25.2 5.4z"/><path class="l4" d="M77.3 73.7c-.1 0-11.8-3.8-22.7-1-6.3 1.7-4.5-7.5-4.5-7.5 1 5.2 7.3 1.8 13.1 1 11.2-1.5 14.1 7.5 14.1 7.5z"/></g><path class="l1" d="M84.1 283.6c1-1 3.8-4 9.9-10.2 5.4-5.4 3.8-14.1 3.3-16.2 1.1 3.9 9.6 30.1 42.7 21.5-21.6-7.9-19.5-23.6-19.4-23.5 17.4 37.1 45.8 14 45.8 14-26.7 3.5-26.2-21-26.2-21V145.8c0-31-24.8-56.1-55.6-56.8.4 2 1.9 5.4 7.9 8 9 3.9 22.4 7.1 22.4 15.1 0 6.8-5 10.4-7.6 12.6s-12.5 8.9-18.6 5.2c-2.7-1.6-4-3.4-4.5-4.8-.6 1.5-1.8 3.2-4.5 4.8-6.1 3.6-16-3-18.6-5.2s-7.6-5.9-7.6-12.6c0-8 13.4-11.2 22.4-15.1 6-2.6 7.5-6 7.9-8-31 .6-55.8 25.8-55.8 56.8v102.4s.5 24.5-26.2 21c0 0 28.4 23.1 45.8-14 0-.1 2.2 15.7-19.4 23.5 33.2 8.6 41.6-17.6 42.7-21.5-.5 2.1-2.1 10.8 3.3 16.2 6.1 6.1 8.9 9.1 9.9 10.2z"/></svg>