<svg id="Layer_1" viewBox="0 0 165.9 280"><style>.c0{fill:#e1eaf2}.c1{fill:#1d71b8}.c2{fill:#8e1315}.c3{fill:#be1622}.c4{fill:#fff}</style><path class="c2" d="M27.7 127.8c-14.1 0-25.5-11.4-25.5-25.5V84.2c0-14.1 11.4-25.5 25.5-25.5 14.1-.1 14.1 69.1 0 69.1zm136.2-25.5c0 14.1-11.4 25.5-25.5 25.5s-14.1-69.2 0-69.2 25.5 11.4 25.5 25.5v18.2z"/><path class="c0" d="M27.2 130.9V58.5c0-30.8 25-55.8 55.8-55.8 30.8 0 55.8 25 55.8 55.8v70.2"/><path class="c1" d="M75 66.3v-8.8C75 46.7 66.3 38 55.5 38S36 46.7 36 57.5v37.1l39-28.3z"/><path d="M36 98.6c-2.2 0-4-1.8-4-4V57.5C32 44.5 42.5 34 55.5 34S79 44.5 79 57.5v8.8c0 2.2-1.8 4-4 4s-4-1.8-4-4v-8.8C71 49 64 42 55.5 42S40 48.9 40 57.5v37.1c0 2.2-1.8 4-4 4z"/><path class="c1" d="M129.2 94.6V57.5c0-10.8-8.7-19.5-19.5-19.5s-19.5 8.7-19.5 19.5v8.8l39 28.3z"/><path d="M129.2 98.6c-2.2 0-4-1.8-4-4V57.5c0-8.5-7-15.5-15.5-15.5s-15.5 7-15.5 15.5v8.8c0 2.2-1.8 4-4 4s-4-1.8-4-4v-8.8c0-13 10.5-23.5 23.5-23.5s23.5 10.5 23.5 23.5v37.1c0 2.2-1.8 4-4 4z"/><path class="c4" d="M125.5 72.2c0-8.7-7.1-15.8-15.8-15.8s-15.8 7.1-15.8 15.8c0 .3-22.6.3-22.6 0 0-8.7-7.1-15.8-15.8-15.8s-15.8 7.1-15.8 15.8l-.1 72.9h85.9V72.2z"/><circle class="c1" cx="55.5" cy="72.2" r="7.9"/><circle cx="55.5" cy="72.2" r="4.8"/><circle class="animated inf jel c1" cx="109.7" cy="72.2" r="7.9"/><circle class="animated inf jel" cx="109.7" cy="72.2" r="4.8"/><circle class="c3" cx="83" cy="83.1" r="22.8"/><path class="c3" d="M138.8 107.3c.1-9 .2-17.6-9-21.8-6.7-3.1-15.9-.9-20.6 9.2l-.2.4c-4.3 10.7-14.6 17.6-26.1 17.6s-21.6-7-26-17.7l-.2-.4C52 84.5 42.8 82.3 36.1 85.4c-9.2 4.2-9.1 12.8-9 21.8v147.9c0 9.6 6 17.8 14.5 21.1v-6.8c0-2.9 2.3-5.2 5.2-5.2 2.7 0 4.9 2.1 5.2 4.7.3-2.6 2.5-4.7 5.2-4.7s4.9 2.1 5.2 4.7c.3-2.6 2.5-4.7 5.2-4.7s4.9 2.1 5.2 4.7c.3-2.6 2.5-4.7 5.2-4.7s4.9 2.1 5.2 4.7c.3-2.6 2.5-4.7 5.2-4.7s4.9 2.1 5.2 4.7c.3-2.6 2.5-4.7 5.2-4.7s4.9 2.1 5.2 4.7c.3-2.6 2.5-4.7 5.2-4.7s4.9 2.1 5.2 4.7c.3-2.6 2.5-4.7 5.2-4.7 2.9 0 5.2 2.3 5.2 5.2v6.8c8.5-3.3 14.5-11.5 14.5-21.1-.4 0-.5-147.1-.5-147.8zm-14.4 27.2c0 2.9-2.3 5.2-5.2 5.2-2.7 0-4.9-2.1-5.2-4.7-.3 2.6-2.5 4.7-5.2 4.7s-4.9-2.1-5.2-4.7c-.3 2.6-2.5 4.7-5.2 4.7s-4.9-2.1-5.2-4.7c-.3 2.6-2.5 4.7-5.2 4.7s-4.9-2.1-5.2-4.7c-.3 2.6-2.5 4.7-5.2 4.7s-4.9-2.1-5.2-4.7c-.3 2.6-2.5 4.7-5.2 4.7s-4.9-2.1-5.2-4.7c-.3 2.6-2.5 4.7-5.2 4.7s-4.9-2.1-5.2-4.7c-.3 2.6-2.5 4.7-5.2 4.7-2.9 0-5.2-2.3-5.2-5.2v-34.3c6.3 16.8 22.4 28.7 41.4 28.7 18.9 0 35.1-11.9 41.4-28.6v34.2z"/></svg>