<svg id="Layer_1" xmlns:xlink="http://www.w3.org/1999/xlink" viewBox="0 0 164 268"><style>.st0{fill:#1d71b8}.st1{fill:#f39200}.st2{fill:#f9c7b2}.st3{clip-path:url(#s4)}.st4{fill:#fff}.st5{fill:#ce7e00}.st6{fill:#dcb09e}</style><path class="st2" d="M115.2 98.5H84.3c-17.6 0-31.8-14.2-31.8-31.8s14.2-31.8 31.8-31.8c4.3 0 8.4.8 12.1 2.4 0 0 2.6 1.1 2.6-2.9s-3.7-4.6-3.7-4.6v-8.1c0-6.1-9.1-5.8-9.1-5.8-33.1 0-60 26.9-60 60v156.9H138V121.3c0-12.6-10.2-22.8-22.8-22.8z"/><circle class="st2" cx="83.8" cy="66.7" r="29.3"/><path d="M83.7 37.5c-9.2 0-17.5 4.3-22.8 11 1.3.2 2.7.3 4.1.3 7.2 0 13.8-2.7 18.7-7.2 5 4.5 11.5 7.2 18.7 7.2 1.4 0 2.8-.1 4.1-.3-5.3-6.8-13.5-11-22.8-11z"/><path class="st6" d="M83.8 72.9c-9.5 0-17.9 4.5-23.3 11.5 5.3 7 13.8 11.5 23.3 11.5s17.9-4.5 23.3-11.5c-5.4-6.9-13.8-11.5-23.3-11.5z"/><path class="st4" d="M83.7 81.8c5.8 0 10.9 2.1 14.2 5.4 1.4-.8 2.6-1.7 3.6-2.8-3.3-4.5-10-7.5-17.8-7.5-7.7 0-14.4 3-17.8 7.5 1 1 2.2 2 3.6 2.8 3.3-3.3 8.4-5.4 14.2-5.4zm-12-21.3c-3.1 0-5.9 1.7-7.4 4.2 1.5 2.5 4.2 4.2 7.4 4.2 3.1 0 5.9-1.7 7.4-4.2-1.6-2.5-4.3-4.2-7.4-4.2z"/><path class="st0" d="M75.2 64.4c.2 1.9-1.2 3.5-3.1 3.7-1.9.2-3.5-1.2-3.7-3.1-.2-1.9 1.2-3.5 3.1-3.7 1.9-.1 3.6 1.3 3.7 3.1z"/><circle cx="71.8" cy="64.7" r="2.1"/><path class="st6" d="M79.8 65.5c.7-3.1-2.6-6.4-7.3-7.4-4.7-1-9 .7-9.7 3.8l17 3.6z"/><path class="st4" d="M95.7 60.5c3.1 0 5.9 1.7 7.4 4.2-1.5 2.5-4.2 4.2-7.4 4.2s-5.9-1.7-7.4-4.2c1.6-2.5 4.3-4.2 7.4-4.2z"/><path class="st0" d="M92.2 64.4c-.2 1.9 1.2 3.5 3.1 3.7 1.9.2 3.5-1.2 3.7-3.1.2-1.9-1.2-3.5-3.1-3.7-1.9-.1-3.6 1.3-3.7 3.1z"/><path d="M93.5 64.5c-.1 1.1.8 2.1 1.9 2.2 1.1.1 2.1-.8 2.2-1.9.1-1.1-.8-2.1-1.9-2.2-1.1 0-2.1.8-2.2 1.9z"/><path class="st6" d="M87.6 65.5c-.7-3.1 2.6-6.4 7.3-7.4 4.7-1 9 .7 9.7 3.8l-17 3.6z"/><g class="animated swing inf"><path d="M66.7 74.3c2 0 2.4 2.1 2.4 2.1s-1-1.1-2.3-.8c-2.6.7.2 7 7.5.3 4-3.7 9.5-3 9.4-3.1 0 0 .5 7-13.8 8.7-7.8.9-8-7.2-3.2-7.2z"/><path d="M100.7 74.3c-2 0-2.4 2.1-2.4 2.1s1-1.1 2.3-.8c2.6.7-.2 7-7.5.3-4-3.7-9.5-3-9.4-3.1 0 0-.5 7 13.8 8.7 7.8.9 8-7.2 3.2-7.2z"/></g><path class="st1" d="M26.3 266.7l7-7 7 7 7-7 7 7 7-7 7 7 7-7 7 7 7-7 7 7 7-7 7 7 7-7 7 7 7-7 7 7 .3-.3V121.2H95.2c-12.5 0-22.7-10.2-22.7-22.7v-2.3c-4.4-1.8-8.3-4.5-11.5-7.9v1.4c0 17.4-14.1 31.5-31.5 31.5h-3.1c-.1 42.3-.1 130.2-.1 145.5z"/><path d="M135.1 2c-13.7 0-25.2 10-27.4 23.1h-51C54.5 12 43.1 2 29.4 2 14.1 2 1.6 14.4 1.6 29.8c0 15.3 12.4 27.8 27.8 27.8 13.5 0 24.7-9.6 27.2-22.4h51.3c2.5 12.8 13.7 22.4 27.2 22.4 15.3 0 27.8-12.4 27.8-27.8S150.5 2 135.1 2z"/><path class="st2" d="M99 35.3v-2.1c0-1.4-1.1-2.4-2.5-2.5-1.4 0-2.4 1.1-2.5 2.5v2.1h5zM77.8 24.5V29c0 1.3 1.1 2.4 2.4 2.4 1 0 1.8-.6 2.1-1.4.4.8 1.2 1.4 2.1 1.4 1 0 1.8-.6 2.1-1.4.4.8 1.2 1.4 2.1 1.4s1.8-.6 2.1-1.4c.4.8 1.2 1.4 2.2 1.4 1.3 0 2.4-1.1 2.4-2.4v-4.5H77.8z"/><g><defs><path id="s3" d="M26.3 266.7l7-7 7 7 7-7 7 7 7-7 7 7 7-7 7 7 7-7 7 7 7-7 7 7 7-7 7 7 7-7 7 7 .3-.3V121.2H95.2c-12.5 0-22.7-10.2-22.7-22.7v-2.3c-4.4-1.8-8.3-4.5-11.5-7.9v1.4c0 17.4-14.1 31.5-31.5 31.5h-3.1c-.1 42.3-.1 130.2-.1 145.5z"/></defs><clipPath id="s4"><use xlink:href="#s3" overflow="visible"/></clipPath><g class="st3"><path class="st5" d="M127.7 217.3c0-5.5 4.5-10 10-10s10 4.5 10 10-4.5 10-10 10-10-4.5-10-10zm-36.1 0c0-5.5 4.5-10 10-10s10 4.5 10 10-4.5 10-10 10c-5.6 0-10-4.5-10-10zm-38.7 0c0-5.5 4.5-10 10-10s10 4.5 10 10-4.5 10-10 10c-5.6 0-10-4.5-10-10zm-36.2 0c0-5.5 4.5-10 10-10s10 4.5 10 10-4.5 10-10 10-10-4.5-10-10z"/><circle class="st5" cx="119.6" cy="187.9" r="10"/><circle class="st5" cx="83.5" cy="187.9" r="10"/><circle class="st5" cx="44.8" cy="187.9" r="10"/><path class="st5" d="M109.6 246.8c0-5.5 4.5-10 10-10s10 4.5 10 10-4.5 10-10 10-10-4.5-10-10zm-36.1 0c0-5.5 4.5-10 10-10s10 4.5 10 10-4.5 10-10 10-10-4.5-10-10zm-38.7 0c0-5.5 4.5-10 10-10s10 4.5 10 10-4.5 10-10 10-10-4.5-10-10z"/><circle class="st5" cx="137.7" cy="158.5" r="10"/><circle class="st5" cx="101.6" cy="158.5" r="10"/><circle class="st5" cx="62.9" cy="158.5" r="10"/><circle class="st5" cx="26.7" cy="158.5" r="10"/><g><path class="st5" d="M109.6 129c0-5.5 4.5-10 10-10s10 4.5 10 10-4.5 10-10 10-10-4.5-10-10zm-36.1 0c0-5.5 4.5-10 10-10s10 4.5 10 10-4.5 10-10 10-10-4.5-10-10zm-38.7 0c0-5.5 4.5-10 10-10s10 4.5 10 10-4.5 10-10 10-10-4.5-10-10z"/></g><g><circle class="st5" cx="62.9" cy="99.6" r="10"/></g></g></g></svg>